<svg width="54" height="54" viewBox="0 0 54 54" fill="none" xmlns="http://www.w3.org/2000/svg">
<rect width="54" height="54" rx="4" fill="#4EB436"/>
<g clip-path="url(#clip0_5835_9892)">
<path fill-rule="evenodd" clip-rule="evenodd" d="M34.0002 19.7409V22.9999C34.3941 22.9999 34.7842 23.0775 35.1482 23.2283C35.5122 23.379 35.8429 23.6 36.1215 23.8786C36.4001 24.1572 36.621 24.4879 36.7718 24.8519C36.9226 25.2158 37.0002 25.606 37.0002 25.9999C37.0002 26.3939 36.9226 26.784 36.7718 27.148C36.621 27.5119 36.4001 27.8427 36.1215 28.1212C35.8429 28.3998 35.5122 28.6208 35.1482 28.7716C34.7842 28.9223 34.3941 28.9999 34.0002 28.9999V31.9999C34.0002 33.6479 32.1192 34.5889 30.8002 33.5999L28.7402 32.0539C27.639 31.2283 26.3569 30.677 25.0002 30.4459V33.2899C25.0003 33.9437 24.7641 34.5754 24.3351 35.0687C23.9061 35.562 23.3132 35.8836 22.6658 35.9742C22.0184 36.0648 21.36 35.9183 20.8121 35.5618C20.2641 35.2052 19.8635 34.6626 19.6842 34.0339L18.1142 28.5379C17.5492 27.8707 17.1815 27.0591 17.0525 26.1944C16.9234 25.3297 17.0381 24.4462 17.3837 23.6431C17.7292 22.84 18.2919 22.1492 19.0085 21.6483C19.7251 21.1475 20.5672 20.8564 21.4402 20.8079L24.4582 20.6399C25.9348 20.5577 27.3708 20.1263 28.6482 19.3809L30.9922 18.0129C32.3262 17.2359 34.0002 18.1969 34.0002 19.7409ZM20.6342 30.0779L21.6072 33.4849C21.654 33.6498 21.7589 33.7922 21.9025 33.8858C22.0462 33.9794 22.2188 34.0179 22.3886 33.9941C22.5584 33.9704 22.7138 33.886 22.8262 33.7565C22.9387 33.6271 23.0004 33.4614 23.0002 33.2899V30.2799L21.4402 30.1929C21.1687 30.1779 20.899 30.1394 20.6342 30.0779ZM32.0002 19.7409L29.6552 21.1099C28.2305 21.9404 26.642 22.4502 25.0002 22.6039V28.4229C26.7872 28.6689 28.4882 29.3659 29.9402 30.4539L32.0002 31.9999V19.7409ZM23.0002 22.7239L21.5502 22.8039C20.8756 22.8412 20.2395 23.1299 19.7675 23.6132C19.2954 24.0965 19.0217 24.7392 19.0004 25.4145C18.979 26.0897 19.2116 26.7484 19.6522 27.2606C20.0928 27.7728 20.7093 28.1011 21.3802 28.1809L21.5502 28.1959L23.0002 28.2759V22.7239ZM34.0002 24.9999V26.9999C34.2551 26.9996 34.5002 26.902 34.6855 26.7271C34.8709 26.5521 34.9824 26.313 34.9973 26.0585C35.0123 25.8041 34.9295 25.5535 34.7659 25.3581C34.6023 25.1626 34.3703 25.037 34.1172 25.0069L34.0002 24.9999Z" fill="black"/>
</g>
<defs>
<clipPath id="clip0_5835_9892">
<rect width="24" height="24" fill="white" transform="translate(15 15)"/>
</clipPath>
</defs>
</svg>
