<svg width="54" height="54" viewBox="0 0 54 54" fill="none" xmlns="http://www.w3.org/2000/svg">
<rect width="54" height="54" rx="4" fill="#4EB436"/>
<path d="M32 36V34C32 32.9391 31.5786 31.9217 30.8284 31.1716C30.0783 30.4214 29.0609 30 28 30H20C18.9391 30 17.9217 30.4214 17.1716 31.1716C16.4214 31.9217 16 32.9391 16 34V36" stroke="black" stroke-width="2" stroke-linecap="round" stroke-linejoin="round"/>
<path d="M24 26C26.2091 26 28 24.2091 28 22C28 19.7909 26.2091 18 24 18C21.7909 18 20 19.7909 20 22C20 24.2091 21.7909 26 24 26Z" stroke="black" stroke-width="2" stroke-linecap="round" stroke-linejoin="round"/>
<path d="M38 35.9999V33.9999C37.9993 33.1136 37.7044 32.2527 37.1614 31.5522C36.6184 30.8517 35.8581 30.3515 35 30.1299" stroke="black" stroke-width="2" stroke-linecap="round" stroke-linejoin="round"/>
<path d="M31 18.1299C31.8604 18.3502 32.623 18.8506 33.1676 19.5522C33.7122 20.2538 34.0078 21.1167 34.0078 22.0049C34.0078 22.8931 33.7122 23.756 33.1676 24.4576C32.623 25.1592 31.8604 25.6596 31 25.8799" stroke="black" stroke-width="2" stroke-linecap="round" stroke-linejoin="round"/>
</svg>
