<svg width="54" height="54" viewBox="0 0 54 54" fill="none" xmlns="http://www.w3.org/2000/svg">
<rect width="54" height="54" rx="4" fill="#4EB436"/>
<path d="M36 30.9999V22.9999C35.9996 22.6492 35.9071 22.3047 35.7315 22.0011C35.556 21.6974 35.3037 21.4453 35 21.2699L28 17.2699C27.696 17.0944 27.3511 17.002 27 17.002C26.6489 17.002 26.304 17.0944 26 17.2699L19 21.2699C18.6963 21.4453 18.444 21.6974 18.2685 22.0011C18.0929 22.3047 18.0004 22.6492 18 22.9999V30.9999C18.0004 31.3506 18.0929 31.6951 18.2685 31.9987C18.444 32.3024 18.6963 32.5545 19 32.7299L26 36.7299C26.304 36.9054 26.6489 36.9979 27 36.9979C27.3511 36.9979 27.696 36.9054 28 36.7299L35 32.7299C35.3037 32.5545 35.556 32.3024 35.7315 31.9987C35.9071 31.6951 35.9996 31.3506 36 30.9999Z" stroke="black" stroke-width="2" stroke-linecap="round" stroke-linejoin="round"/>
<path d="M18.27 21.96L27 27.01L35.73 21.96" stroke="black" stroke-width="2" stroke-linecap="round" stroke-linejoin="round"/>
<path d="M27 37.08V27" stroke="black" stroke-width="2" stroke-linecap="round" stroke-linejoin="round"/>
</svg>
