<svg width="54" height="54" viewBox="0 0 54 54" fill="none" xmlns="http://www.w3.org/2000/svg">
<rect width="54" height="54" rx="4" fill="#4EB436"/>
<path d="M35 32C35.5304 32 36.0391 31.7893 36.4142 31.4142C36.7893 31.0391 37 30.5304 37 30V19C37 18.4696 36.7893 17.9609 36.4142 17.5858C36.0391 17.2107 35.5304 17 35 17H24.46C24.81 17.61 25 18.3 25 19H35V30H26V32M30 22V24H24V37H22V31H20V37H18V29H16.5V24C16.5 23.4696 16.7107 22.9609 17.0858 22.5858C17.4609 22.2107 17.9696 22 18.5 22H30ZM23 19C23 19.5304 22.7893 20.0391 22.4142 20.4142C22.0391 20.7893 21.5304 21 21 21C20.4696 21 19.9609 20.7893 19.5858 20.4142C19.2107 20.0391 19 19.5304 19 19C19 18.4696 19.2107 17.9609 19.5858 17.5858C19.9609 17.2107 20.4696 17 21 17C21.5304 17 22.0391 17.2107 22.4142 17.5858C22.7893 17.9609 23 18.4696 23 19Z" fill="white"/>
</svg>
