<svg width="54" height="54" viewBox="0 0 54 54" fill="none" xmlns="http://www.w3.org/2000/svg">
<rect width="54" height="54" rx="4" fill="#4EB436"/>
<path d="M27 17.5C23.19 17.5 20.5 20.243 20.5 23.619C20.5 25.155 21.132 26.191 21.925 27.179C22.097 27.394 22.272 27.601 22.452 27.814L22.548 27.926C22.758 28.176 22.975 28.434 23.178 28.7C23.582 29.231 23.961 29.828 24.173 30.534C24.2249 30.7228 24.2009 30.9244 24.1062 31.0958C24.0114 31.2672 23.8534 31.3947 23.6659 31.4511C23.4784 31.5075 23.2763 31.4883 23.1027 31.3977C22.9291 31.307 22.7979 31.1521 22.737 30.966C22.599 30.506 22.34 30.076 21.984 29.609C21.7961 29.3661 21.602 29.128 21.402 28.895L21.31 28.785C21.13 28.573 20.94 28.349 20.755 28.118C19.87 27.016 19 25.651 19 23.618C19 19.363 22.415 16 27 16C31.585 16 35 19.362 35 23.619C35 25.651 34.13 27.016 33.245 28.119C33.06 28.349 32.87 28.573 32.69 28.786L32.598 28.895C32.388 29.143 32.193 29.376 32.016 29.609C31.66 30.076 31.401 30.507 31.263 30.966C31.1992 31.1486 31.0674 31.2995 30.895 31.3873C30.7227 31.4752 30.5231 31.4931 30.3378 31.4374C30.1526 31.3817 29.996 31.2567 29.9006 31.0884C29.8053 30.9201 29.7786 30.7215 29.826 30.534C30.039 29.828 30.418 29.231 30.823 28.7C31.025 28.434 31.242 28.176 31.453 27.926L31.548 27.814C31.728 27.601 31.903 27.394 32.075 27.18C32.868 26.19 33.5 25.155 33.5 23.619C33.5 20.243 30.81 17.5 27 17.5ZM23.75 33H30.25C30.4489 33 30.6397 33.079 30.7803 33.2197C30.921 33.3603 31 33.5511 31 33.75C31 33.9489 30.921 34.1397 30.7803 34.2803C30.6397 34.421 30.4489 34.5 30.25 34.5H23.75C23.5511 34.5 23.3603 34.421 23.2197 34.2803C23.079 34.1397 23 33.9489 23 33.75C23 33.5511 23.079 33.3603 23.2197 33.2197C23.3603 33.079 23.5511 33 23.75 33ZM24.5 36.75C24.5 36.5511 24.579 36.3603 24.7197 36.2197C24.8603 36.079 25.0511 36 25.25 36H28.75C28.9489 36 29.1397 36.079 29.2803 36.2197C29.421 36.3603 29.5 36.5511 29.5 36.75C29.5 36.9489 29.421 37.1397 29.2803 37.2803C29.1397 37.421 28.9489 37.5 28.75 37.5H25.25C25.0511 37.5 24.8603 37.421 24.7197 37.2803C24.579 37.1397 24.5 36.9489 24.5 36.75Z" fill="black" stroke="black" stroke-width="0.5"/>
</svg>
