<svg width="54" height="54" viewBox="0 0 54 54" fill="none" xmlns="http://www.w3.org/2000/svg">
<rect width="54" height="54" rx="4" fill="#4EB436"/>
<path d="M27 37C32.5228 37 37 32.5228 37 27C37 21.4772 32.5228 17 27 17C21.4772 17 17 21.4772 17 27C17 32.5228 21.4772 37 27 37Z" stroke="white" stroke-width="2" stroke-linecap="round" stroke-linejoin="round"/>
<path d="M27 31C29.2091 31 31 29.2091 31 27C31 24.7909 29.2091 23 27 23C24.7909 23 23 24.7909 23 27C23 29.2091 24.7909 31 27 31Z" stroke="white" stroke-width="2" stroke-linecap="round" stroke-linejoin="round"/>
<path d="M19.9302 19.9301L24.1702 24.1701" stroke="white" stroke-width="2" stroke-linecap="round" stroke-linejoin="round"/>
<path d="M29.8301 29.83L34.0701 34.07" stroke="white" stroke-width="2" stroke-linecap="round" stroke-linejoin="round"/>
<path d="M29.8301 24.1701L34.0701 19.9301" stroke="white" stroke-width="2" stroke-linecap="round" stroke-linejoin="round"/>
<path d="M29.8301 24.17L33.3601 20.64" stroke="white" stroke-width="2" stroke-linecap="round" stroke-linejoin="round"/>
<path d="M19.9302 34.07L24.1702 29.83" stroke="white" stroke-width="2" stroke-linecap="round" stroke-linejoin="round"/>
</svg>
