<svg width="54" height="54" viewBox="0 0 54 54" fill="none" xmlns="http://www.w3.org/2000/svg">
<rect width="54" height="54" rx="4" fill="#4EB436"/>
<path d="M31.5 19C31.5 19 32.625 21.25 31.5 24M35 17C35 17 37.25 21.05 35 26M24.5 25C24.9596 25 25.4148 24.9095 25.8394 24.7336C26.264 24.5577 26.6499 24.2999 26.9749 23.9749C27.2999 23.6499 27.5577 23.264 27.7336 22.8394C27.9095 22.4148 28 21.9596 28 21.5C28 21.0404 27.9095 20.5852 27.7336 20.1606C27.5577 19.736 27.2999 19.3501 26.9749 19.0251C26.6499 18.7001 26.264 18.4423 25.8394 18.2664C25.4148 18.0905 24.9596 18 24.5 18C23.5717 18 22.6815 18.3687 22.0251 19.0251C21.3687 19.6815 21 20.5717 21 21.5C21 22.4283 21.3687 23.3185 22.0251 23.9749C22.6815 24.6313 23.5717 25 24.5 25ZM17 35.4V36H32V35.4C32 33.16 32 32.04 31.564 31.184C31.1805 30.4314 30.5686 29.8195 29.816 29.436C28.96 29 27.84 29 25.6 29H23.4C21.16 29 20.04 29 19.184 29.436C18.4314 29.8195 17.8195 30.4314 17.436 31.184C17 32.04 17 33.16 17 35.4Z" stroke="white" stroke-width="2" stroke-linecap="round" stroke-linejoin="round"/>
</svg>
