<svg width="54" height="54" viewBox="0 0 54 54" fill="none" xmlns="http://www.w3.org/2000/svg">
<rect width="54" height="54" rx="4" fill="#4EB436"/>
<path d="M31 36V34C31 32.9391 30.5786 31.9217 29.8284 31.1716C29.0783 30.4214 28.0609 30 27 30H20C18.9391 30 17.9217 30.4214 17.1716 31.1716C16.4214 31.9217 16 32.9391 16 34V36" stroke="white" stroke-width="2" stroke-linecap="round" stroke-linejoin="round"/>
<path d="M23.5 26C25.7091 26 27.5 24.2091 27.5 22C27.5 19.7909 25.7091 18 23.5 18C21.2909 18 19.5 19.7909 19.5 22C19.5 24.2091 21.2909 26 23.5 26Z" stroke="white" stroke-width="2" stroke-linecap="round" stroke-linejoin="round"/>
<path d="M32 26L34 28L38 24" stroke="white" stroke-width="2" stroke-linecap="round" stroke-linejoin="round"/>
</svg>
